<svg width="230" height="188" viewBox="0 0 230 188" fill="none" xmlns="http://www.w3.org/2000/svg">
<path d="M58.1992 155.907L79.7676 147.244C77.7953 141.468 76.157 135.629 74.8527 129.726C73.5484 123.824 72.7054 117.89 72.3237 111.924L60.8714 119.349C59.9806 119.984 59.3126 120.714 58.8672 121.539C58.4219 122.364 58.1992 123.284 58.1992 124.3V155.907ZM83.8714 146.577H115.938C118.292 139.532 120.232 132.329 121.759 124.966C123.286 117.604 124.05 110.178 124.05 102.689C124.05 90.8838 122.364 80.3957 118.992 71.2245C115.62 62.0533 109.257 52.0095 99.9046 41.093C90.5519 52.0095 84.2213 62.0533 80.9129 71.2245C77.6044 80.3957 75.9502 90.8838 75.9502 102.689C75.9502 110.178 76.6819 117.604 78.1452 124.966C79.6086 132.329 81.5173 139.532 83.8714 146.577ZM99.9046 101.832C97.1051 101.832 94.7988 100.928 92.9855 99.1188C91.1722 97.31 90.2656 95.0092 90.2656 92.2166C90.2656 89.424 91.1722 87.0916 92.9855 85.2193C94.7988 83.347 97.1051 82.4108 99.9046 82.4108C102.704 82.4108 105.042 83.347 106.919 85.2193C108.796 87.0916 109.734 89.424 109.734 92.2166C109.734 95.0092 108.796 97.31 106.919 99.1188C105.042 100.928 102.704 101.832 99.9046 101.832ZM141.801 155.907V124.49C141.801 123.475 141.562 122.523 141.085 121.634C140.608 120.746 139.956 119.984 139.129 119.349L127.676 111.924C127.167 117.89 126.102 124.506 124.479 131.773C122.857 139.04 121.441 144.229 120.232 147.339L141.801 155.907ZM99.9046 35C109.893 45.0915 117.115 55.5955 121.568 66.512C126.022 77.4285 128.249 89.2654 128.249 102.022C128.249 102.848 128.265 103.72 128.297 104.641C128.328 105.561 128.281 106.434 128.154 107.259L141.133 116.208C142.596 117.16 143.773 118.381 144.664 119.873C145.555 121.364 146 122.904 146 124.49V162L117.942 150.766H81.8672L54 162V124.3C54 122.713 54.3817 121.174 55.1452 119.683C55.9087 118.191 57.0221 116.969 58.4855 116.017L71.6556 107.068C71.6556 106.37 71.6715 105.561 71.7033 104.641C71.7351 103.72 71.751 102.848 71.751 102.022C71.751 89.2654 73.9461 77.4285 78.3361 66.512C82.7261 55.5955 89.9156 45.0915 99.9046 35Z" fill="white"/>
</svg>
