<svg width="230" height="188" viewBox="0 0 230 188" fill="none" xmlns="http://www.w3.org/2000/svg">
<path d="M95.0283 153.291C96.1327 153.291 97.2607 153.052 98.4123 152.575C99.5639 152.097 100.449 151.493 101.067 150.762L153.31 98.5C155.051 96.7579 156.484 94.9361 157.607 93.0344C158.731 91.1338 159.292 88.9939 159.292 86.6146C159.292 84.2543 158.731 81.9924 157.607 79.8289C156.484 77.6653 155.079 75.6563 153.394 73.8019L128.536 49.1037C126.739 47.3055 124.913 45.9568 123.059 45.0576C121.205 44.1585 119.099 43.7089 116.74 43.7089C114.417 43.7089 112.292 44.1726 110.364 45.0998C108.435 46.027 106.656 47.3336 105.027 49.0195L97.5275 56.5216L110.336 69.25C111.403 70.3177 112.33 71.6945 113.116 73.3804C113.903 75.0663 114.296 76.7241 114.296 78.3537C114.296 81.4277 113.246 83.9801 111.146 86.011C109.046 88.0431 106.529 89.0591 103.594 89.0591C101.797 89.0591 100.14 88.7781 98.6229 88.2161C97.1062 87.6542 95.8316 86.8764 94.7991 85.8829L81.8546 72.8746L52.6152 102.125C51.8288 102.956 51.2109 103.925 50.7615 105.029C50.3121 106.133 50.0873 107.218 50.0873 108.283C50.0873 110.301 50.7053 111.9 51.9411 113.081C53.177 114.262 54.7314 114.853 56.6043 114.853C57.7648 114.853 58.8929 114.586 59.9883 114.052C61.0837 113.518 61.9965 112.942 62.7268 112.324L83.7926 91.2507L86.489 93.9481L65.339 114.853C64.6087 115.696 64.0048 116.665 63.5273 117.761C63.0498 118.857 62.8111 119.967 62.8111 121.091C62.8111 122.833 63.4712 124.364 64.7913 125.685C66.1114 127.005 67.6607 127.666 69.4392 127.666C70.5818 127.666 71.7009 127.441 72.7963 126.991C73.8917 126.542 74.7787 125.921 75.4573 125.13L98.5387 101.956L101.235 104.653L78.2313 127.581C77.501 128.424 76.8971 129.394 76.4196 130.49C75.9421 131.585 75.7034 132.695 75.7034 133.819C75.7034 135.674 76.3353 137.233 77.5993 138.497C78.8632 139.762 80.4221 140.394 82.2759 140.394C83.3994 140.394 84.4836 140.169 85.5284 139.72C86.5733 139.27 87.5114 138.652 88.3428 137.865L111.431 114.853L114.127 117.55L91.0393 140.647C90.2528 141.479 89.6349 142.473 89.1855 143.631C88.7361 144.789 88.5114 145.855 88.5114 146.829C88.5114 148.721 89.1433 150.271 90.4073 151.479C91.6712 152.687 93.2116 153.291 95.0283 153.291ZM95.094 157C91.8291 157 89.1433 155.806 87.0368 153.418C84.9302 151.029 84.1578 147.946 84.7195 144.167C80.8996 144.518 77.7257 143.569 75.1978 141.321C72.6699 139.073 71.5745 135.758 71.9115 131.375C67.6422 131.599 64.3278 130.56 61.9685 128.256C59.6091 125.952 58.6541 122.72 59.1035 118.562C55.6206 118.955 52.6293 118.214 50.1295 116.338C47.6297 114.462 46.3798 111.748 46.3798 108.194C46.3798 106.62 46.687 105.044 47.3016 103.465C47.9173 101.886 48.7616 100.568 49.8346 99.5115L81.9388 67.4798L96.9377 82.4841C97.6118 83.2147 98.5432 83.875 99.7318 84.4651C100.922 85.0551 102.237 85.3501 103.679 85.3501C105.42 85.3501 106.993 84.6747 108.397 83.3237C109.802 81.9728 110.504 80.3262 110.504 78.3841C110.504 77.1837 110.223 76.0497 109.661 74.982C109.1 73.9143 108.422 72.9286 107.629 72.025L84.7195 49.1037C82.9781 47.3055 81.1282 45.9568 79.1699 45.0576C77.2117 44.1585 75.0731 43.7089 72.7541 43.7089C70.4318 43.7089 68.3489 44.1585 66.5052 45.0576C64.6604 45.9568 62.8987 47.2976 61.2202 49.0801L41.1555 69.0814C39.2938 70.9156 37.8872 72.9617 36.9356 75.2197C35.9851 77.4776 35.566 79.9694 35.6783 82.6949C35.6783 84.4651 35.9592 86.179 36.521 87.8368C37.0827 89.4946 37.8411 90.9697 38.7961 92.2622L35.7744 95.1282C34.8116 93.5548 33.979 91.6441 33.2768 89.3963C32.5747 87.1484 32.1674 84.8444 32.055 82.4841C31.8303 79.3372 32.2938 76.3869 33.4454 73.6333C34.597 70.8797 36.2401 68.4352 38.3748 66.2997L58.2609 46.4063C60.3394 44.3833 62.6027 42.8098 65.0508 41.6859C67.5001 40.562 70.1122 40 72.8873 40C75.741 40 78.3442 40.5339 80.6968 41.6016C83.0494 42.6693 85.3009 44.2709 87.4513 46.4063L94.8783 53.8242L102.305 46.4063C104.401 44.2709 106.626 42.6693 108.982 41.6016C111.337 40.5339 113.911 40 116.704 40C119.536 40 122.189 40.562 124.66 41.6859C127.132 42.8098 129.381 44.3788 131.408 46.3928L156.09 70.9359C158.169 73.1275 159.84 75.6159 161.104 78.401C162.368 81.1872 163 83.9548 163 86.7039C163 89.5103 162.354 92.0937 161.062 94.4539C159.77 96.8141 158.113 99.062 156.09 101.197L103.847 153.375C102.611 154.724 101.247 155.665 99.7554 156.199C98.2634 156.733 96.7096 157 95.094 157Z" fill="white"/>
</svg>
