<svg width="230" height="188" viewBox="0 0 230 188" fill="none" xmlns="http://www.w3.org/2000/svg">
<mask id="path-1-inside-1_281_7" fill="white">
<path fill-rule="evenodd" clip-rule="evenodd" d="M62.8598 134.82V142H133.14V134.85C133.14 132.156 132.299 129.661 130.617 127.367C128.935 125.073 126.505 123.149 123.327 121.596C120.15 120.043 116.424 118.832 112.151 117.963C107.877 117.093 103.098 116.658 97.8149 116.658C92.6299 116.658 87.9221 117.093 83.6916 117.963C79.461 118.832 75.7258 120.043 72.486 121.596C69.2461 123.149 66.8318 125.071 65.243 127.361C63.6542 129.651 62.8598 132.137 62.8598 134.82ZM129.215 137.901H66.785V135.478C66.3489 131.13 68.9657 127.59 74.6355 124.857C80.3053 122.124 88.0779 120.758 97.9533 120.758C107.953 120.758 115.726 122.124 121.271 124.857C126.816 127.59 129.464 131.13 129.215 135.478V137.901ZM87.6729 106.853C90.5078 109.663 93.947 111.068 97.9906 111.068C102.114 111.068 105.576 109.655 108.378 106.829C111.179 104.003 112.579 100.575 112.579 96.5435C112.579 92.4329 111.167 88.9814 108.342 86.1888C105.516 83.3963 102.04 82 97.9159 82C93.8897 82 90.4673 83.4081 87.6486 86.2242C84.8299 89.0416 83.4205 92.5062 83.4205 96.618C83.4205 100.632 84.838 104.043 87.6729 106.853ZM105.383 104.016C103.327 105.984 100.888 106.969 98.0654 106.969C94.9938 106.969 92.4704 105.975 90.4953 103.988C88.5202 102 87.5327 99.5248 87.5327 96.5621C87.5327 93.6752 88.5296 91.2099 90.5234 89.1665C92.5171 87.1217 95 86.0994 97.972 86.0994C100.868 86.0994 103.341 87.1242 105.391 89.1739C107.442 91.2236 108.467 93.6553 108.467 96.4689C108.467 99.5311 107.439 102.047 105.383 104.016ZM33.8879 107.966C33.8879 105.624 34.7383 103.599 36.4393 101.891C38.1389 100.183 40.195 99.3292 42.6075 99.3292C44.9564 99.3292 47.0187 100.174 48.7944 101.863C50.5701 103.553 51.4579 105.633 51.4579 108.104C51.4579 110.391 50.6137 112.388 48.9252 114.096C47.2355 115.804 45.086 116.658 42.4766 116.658C40.053 116.658 38.0156 115.811 36.3645 114.115C34.7134 112.421 33.8879 110.371 33.8879 107.966ZM42.4766 112.658C44.1185 112.658 45.2108 112.163 46.0805 111.284L46.0816 111.283C47.0704 110.282 47.4579 109.28 47.4579 108.104C47.4579 106.718 47.0121 105.689 46.0372 104.761C44.9694 103.745 43.8817 103.329 42.6075 103.329C41.2579 103.329 40.2226 103.76 39.2746 104.713L39.2736 104.714C38.2946 105.697 37.8879 106.717 37.8879 107.966C37.8879 109.347 38.3194 110.39 39.2293 111.323L39.2303 111.324C40.1083 112.226 41.1031 112.658 42.4766 112.658ZM162.299 108.048C162.299 110.449 161.459 112.485 159.779 114.154C158.101 115.824 155.963 116.658 153.366 116.658C151.035 116.658 149.012 115.791 147.299 114.057C145.586 112.323 144.729 110.311 144.729 108.022C144.729 105.643 145.599 103.599 147.338 101.891C149.078 100.183 151.126 99.3292 153.484 99.3292C155.934 99.3292 158.016 100.174 159.729 101.863C161.442 103.553 162.299 105.614 162.299 108.048ZM156.96 111.317L156.959 111.318C156.106 112.166 155.019 112.658 153.366 112.658C152.157 112.658 151.145 112.258 150.144 111.246C149.118 110.207 148.729 109.186 148.729 108.022C148.729 106.746 149.146 105.722 150.141 104.745C151.161 103.744 152.214 103.329 153.484 103.329C154.904 103.329 155.971 103.775 156.921 104.712C157.862 105.64 158.299 106.671 158.299 108.048C158.299 109.401 157.872 110.41 156.96 111.317ZM22 138V137.811C22 135.387 23.1915 132.996 26.9429 130.651C30.6621 128.326 35.7971 126.994 42.6505 126.994C43.246 126.994 43.9556 127.024 44.787 127.088C44.6972 127.436 44.6114 127.781 44.5295 128.124C44.0568 130.108 43.8131 132.089 43.8131 134.062V138H22ZM42.6505 122.994C43.5847 122.994 44.6814 123.054 45.9405 123.174L46.0075 123.18C47.2935 123.304 48.6118 123.498 49.9626 123.76C49.5141 125.076 49.1221 126.359 48.7866 127.608C48.656 128.094 48.534 128.576 48.4206 129.052C48.0156 130.751 47.8131 132.421 47.8131 134.062V142H18V137.811C18 133.62 20.2741 130.103 24.8224 127.259C29.3707 124.416 35.3134 122.994 42.6505 122.994ZM152 138V134.111C152 132.076 151.804 130.017 151.419 127.937C151.367 127.654 151.311 127.373 151.251 127.096C152.074 127.026 152.795 126.994 153.421 126.994C160.305 126.994 165.437 128.302 169.125 130.574C172.776 132.826 174 135.225 174 137.813V138H152ZM150.181 123.178L150.063 123.191C148.884 123.314 147.511 123.507 145.944 123.769C146.496 124.903 146.937 126.182 147.266 127.606C147.346 127.95 147.419 128.303 147.486 128.664C147.829 130.519 148 132.334 148 134.111V142H178V137.813C178 133.503 175.741 129.955 171.224 127.17C166.707 124.386 160.773 122.994 153.421 122.994C152.466 122.994 151.386 123.055 150.181 123.178Z"/>
</mask>
<path fill-rule="evenodd" clip-rule="evenodd" d="M62.8598 134.82V142H133.14V134.85C133.14 132.156 132.299 129.661 130.617 127.367C128.935 125.073 126.505 123.149 123.327 121.596C120.15 120.043 116.424 118.832 112.151 117.963C107.877 117.093 103.098 116.658 97.8149 116.658C92.6299 116.658 87.9221 117.093 83.6916 117.963C79.461 118.832 75.7258 120.043 72.486 121.596C69.2461 123.149 66.8318 125.071 65.243 127.361C63.6542 129.651 62.8598 132.137 62.8598 134.82ZM129.215 137.901H66.785V135.478C66.3489 131.13 68.9657 127.59 74.6355 124.857C80.3053 122.124 88.0779 120.758 97.9533 120.758C107.953 120.758 115.726 122.124 121.271 124.857C126.816 127.59 129.464 131.13 129.215 135.478V137.901ZM87.6729 106.853C90.5078 109.663 93.947 111.068 97.9906 111.068C102.114 111.068 105.576 109.655 108.378 106.829C111.179 104.003 112.579 100.575 112.579 96.5435C112.579 92.4329 111.167 88.9814 108.342 86.1888C105.516 83.3963 102.04 82 97.9159 82C93.8897 82 90.4673 83.4081 87.6486 86.2242C84.8299 89.0416 83.4205 92.5062 83.4205 96.618C83.4205 100.632 84.838 104.043 87.6729 106.853ZM105.383 104.016C103.327 105.984 100.888 106.969 98.0654 106.969C94.9938 106.969 92.4704 105.975 90.4953 103.988C88.5202 102 87.5327 99.5248 87.5327 96.5621C87.5327 93.6752 88.5296 91.2099 90.5234 89.1665C92.5171 87.1217 95 86.0994 97.972 86.0994C100.868 86.0994 103.341 87.1242 105.391 89.1739C107.442 91.2236 108.467 93.6553 108.467 96.4689C108.467 99.5311 107.439 102.047 105.383 104.016ZM33.8879 107.966C33.8879 105.624 34.7383 103.599 36.4393 101.891C38.1389 100.183 40.195 99.3292 42.6075 99.3292C44.9564 99.3292 47.0187 100.174 48.7944 101.863C50.5701 103.553 51.4579 105.633 51.4579 108.104C51.4579 110.391 50.6137 112.388 48.9252 114.096C47.2355 115.804 45.086 116.658 42.4766 116.658C40.053 116.658 38.0156 115.811 36.3645 114.115C34.7134 112.421 33.8879 110.371 33.8879 107.966ZM42.4766 112.658C44.1185 112.658 45.2108 112.163 46.0805 111.284L46.0816 111.283C47.0704 110.282 47.4579 109.28 47.4579 108.104C47.4579 106.718 47.0121 105.689 46.0372 104.761C44.9694 103.745 43.8817 103.329 42.6075 103.329C41.2579 103.329 40.2226 103.76 39.2746 104.713L39.2736 104.714C38.2946 105.697 37.8879 106.717 37.8879 107.966C37.8879 109.347 38.3194 110.39 39.2293 111.323L39.2303 111.324C40.1083 112.226 41.1031 112.658 42.4766 112.658ZM162.299 108.048C162.299 110.449 161.459 112.485 159.779 114.154C158.101 115.824 155.963 116.658 153.366 116.658C151.035 116.658 149.012 115.791 147.299 114.057C145.586 112.323 144.729 110.311 144.729 108.022C144.729 105.643 145.599 103.599 147.338 101.891C149.078 100.183 151.126 99.3292 153.484 99.3292C155.934 99.3292 158.016 100.174 159.729 101.863C161.442 103.553 162.299 105.614 162.299 108.048ZM156.96 111.317L156.959 111.318C156.106 112.166 155.019 112.658 153.366 112.658C152.157 112.658 151.145 112.258 150.144 111.246C149.118 110.207 148.729 109.186 148.729 108.022C148.729 106.746 149.146 105.722 150.141 104.745C151.161 103.744 152.214 103.329 153.484 103.329C154.904 103.329 155.971 103.775 156.921 104.712C157.862 105.64 158.299 106.671 158.299 108.048C158.299 109.401 157.872 110.41 156.96 111.317ZM22 138V137.811C22 135.387 23.1915 132.996 26.9429 130.651C30.6621 128.326 35.7971 126.994 42.6505 126.994C43.246 126.994 43.9556 127.024 44.787 127.088C44.6972 127.436 44.6114 127.781 44.5295 128.124C44.0568 130.108 43.8131 132.089 43.8131 134.062V138H22ZM42.6505 122.994C43.5847 122.994 44.6814 123.054 45.9405 123.174L46.0075 123.18C47.2935 123.304 48.6118 123.498 49.9626 123.76C49.5141 125.076 49.1221 126.359 48.7866 127.608C48.656 128.094 48.534 128.576 48.4206 129.052C48.0156 130.751 47.8131 132.421 47.8131 134.062V142H18V137.811C18 133.62 20.2741 130.103 24.8224 127.259C29.3707 124.416 35.3134 122.994 42.6505 122.994ZM152 138V134.111C152 132.076 151.804 130.017 151.419 127.937C151.367 127.654 151.311 127.373 151.251 127.096C152.074 127.026 152.795 126.994 153.421 126.994C160.305 126.994 165.437 128.302 169.125 130.574C172.776 132.826 174 135.225 174 137.813V138H152ZM150.181 123.178L150.063 123.191C148.884 123.314 147.511 123.507 145.944 123.769C146.496 124.903 146.937 126.182 147.266 127.606C147.346 127.95 147.419 128.303 147.486 128.664C147.829 130.519 148 132.334 148 134.111V142H178V137.813C178 133.503 175.741 129.955 171.224 127.17C166.707 124.386 160.773 122.994 153.421 122.994C152.466 122.994 151.386 123.055 150.181 123.178Z" fill="white"/>
<path d="M46.0638 111.266L46.0628 111.267L46.0983 111.302L46.0993 111.301L46.0638 111.266ZM62.8598 142H62.8098V142.05H62.8598V142ZM133.14 142V142.05H133.19V142H133.14ZM123.327 121.596L123.305 121.641L123.327 121.596ZM112.151 117.963L112.161 117.914L112.151 117.963ZM83.6916 117.963L83.6815 117.914L83.6916 117.963ZM65.243 127.361L65.2841 127.39L65.2841 127.39L65.243 127.361ZM66.785 137.901H66.735V137.951H66.785V137.901ZM129.215 137.901V137.951H129.265V137.901H129.215ZM66.785 135.478H66.8353L66.8348 135.473L66.785 135.478ZM121.271 124.857L121.249 124.902L121.271 124.857ZM129.215 135.478L129.165 135.475V135.478H129.215ZM87.6729 106.853L87.6377 106.889L87.6729 106.853ZM108.378 106.829L108.413 106.864L108.378 106.829ZM108.342 86.1888L108.377 86.1533L108.377 86.1532L108.342 86.1888ZM87.6486 86.2242L87.6133 86.1888L87.6132 86.1889L87.6486 86.2242ZM105.383 104.016L105.349 103.979L105.383 104.016ZM90.4953 103.988L90.4598 104.023L90.4953 103.988ZM90.5234 89.1665L90.5592 89.2014L90.5592 89.2014L90.5234 89.1665ZM105.391 89.1739L105.355 89.2093L105.355 89.2093L105.391 89.1739ZM36.4393 101.891L36.4747 101.927L36.4747 101.927L36.4393 101.891ZM48.7944 101.863L48.7599 101.9L48.7944 101.863ZM48.9252 114.096L48.9608 114.131L48.9608 114.131L48.9252 114.096ZM36.3645 114.115L36.4003 114.08L36.4003 114.08L36.3645 114.115ZM46.0805 111.284L46.1161 111.319L46.1161 111.319L46.0805 111.284ZM46.0816 111.283L46.1171 111.318L46.1171 111.318L46.0816 111.283ZM46.0372 104.761L46.0028 104.798L46.0372 104.761ZM39.2746 104.713L39.2392 104.678L39.2392 104.678L39.2746 104.713ZM39.2736 104.714L39.309 104.749L39.309 104.749L39.2736 104.714ZM39.2293 111.323L39.1935 111.358L39.1935 111.358L39.2293 111.323ZM39.2303 111.324L39.2661 111.29L39.2661 111.29L39.2303 111.324ZM159.779 114.154L159.744 114.119L159.744 114.119L159.779 114.154ZM159.729 101.863L159.694 101.899L159.729 101.863ZM156.959 111.318L156.994 111.354L156.994 111.354L156.959 111.318ZM156.96 111.317L156.924 111.282L156.924 111.282L156.96 111.317ZM150.144 111.246L150.109 111.281L150.144 111.246ZM150.141 104.745L150.106 104.71L150.141 104.745ZM156.921 104.712L156.956 104.676L156.921 104.712ZM22 138H21.95V138.05H22V138ZM26.9429 130.651L26.9694 130.693L26.9429 130.651ZM44.787 127.088L44.8354 127.101L44.8503 127.043L44.7909 127.039L44.787 127.088ZM44.5295 128.124L44.5782 128.136L44.5295 128.124ZM43.8131 138V138.05H43.8631V138H43.8131ZM45.9405 123.174L45.9453 123.124L45.9453 123.124L45.9405 123.174ZM46.0075 123.18L46.0123 123.13L46.0122 123.13L46.0075 123.18ZM49.9626 123.76L50.0099 123.776L50.0284 123.721L49.9721 123.711L49.9626 123.76ZM48.7866 127.608L48.7383 127.595L48.7866 127.608ZM48.4206 129.052L48.3719 129.04L48.4206 129.052ZM47.8131 142V142.05H47.8631V142H47.8131ZM18 142H17.95V142.05H18V142ZM152 138H151.95V138.05H152V138ZM151.419 127.937L151.469 127.928L151.419 127.937ZM151.251 127.096L151.247 127.046L151.19 127.051L151.202 127.106L151.251 127.096ZM169.125 130.574L169.151 130.532L169.151 130.532L169.125 130.574ZM174 138V138.05H174.05V138H174ZM150.063 123.191L150.058 123.141L150.058 123.141L150.063 123.191ZM150.181 123.178L150.176 123.129L150.176 123.129L150.181 123.178ZM145.944 123.769L145.936 123.72L145.87 123.731L145.899 123.791L145.944 123.769ZM147.266 127.606L147.315 127.595L147.266 127.606ZM147.486 128.664L147.535 128.655V128.655L147.486 128.664ZM148 142H147.95V142.05H148V142ZM178 142V142.05H178.05V142H178ZM171.224 127.17L171.251 127.127L171.251 127.127L171.224 127.17ZM62.9098 142V134.82H62.8098V142H62.9098ZM133.14 141.95H62.8598V142.05H133.14V141.95ZM133.09 134.85V142H133.19V134.85H133.09ZM130.576 127.397C132.253 129.683 133.09 132.167 133.09 134.85H133.19C133.19 132.145 132.345 129.64 130.657 127.338L130.576 127.397ZM123.305 121.641C126.477 123.191 128.9 125.11 130.576 127.397L130.657 127.338C128.969 125.035 126.532 123.107 123.349 121.551L123.305 121.641ZM112.141 118.012C116.411 118.881 120.132 120.091 123.305 121.641L123.349 121.551C120.167 119.996 116.437 118.784 112.161 117.914L112.141 118.012ZM97.8149 116.708C103.096 116.708 107.871 117.143 112.141 118.012L112.161 117.914C107.883 117.043 103.101 116.608 97.8149 116.608V116.708ZM83.7016 118.012C87.9283 117.143 92.6326 116.708 97.8149 116.708V116.608C92.6272 116.608 87.9159 117.043 83.6815 117.914L83.7016 118.012ZM72.5076 121.641C75.7431 120.091 79.4743 118.881 83.7016 118.012L83.6815 117.914C79.4478 118.784 75.7086 119.996 72.4644 121.551L72.5076 121.641ZM65.2841 127.39C66.8667 125.108 69.2733 123.191 72.5076 121.641L72.4644 121.551C69.2189 123.107 66.7969 125.033 65.2019 127.333L65.2841 127.39ZM62.9098 134.82C62.9098 132.148 63.7008 129.671 65.2841 127.39L65.2019 127.333C63.6075 129.63 62.8098 132.127 62.8098 134.82H62.9098ZM66.785 137.951H129.215V137.851H66.785V137.951ZM66.735 135.478V137.901H66.835V135.478H66.735ZM74.6138 124.812C71.7745 126.181 69.6952 127.753 68.3803 129.532C67.0646 131.312 66.516 133.297 66.7353 135.483L66.8348 135.473C66.618 133.312 67.1597 131.352 68.4608 129.592C69.7627 127.83 71.8267 126.267 74.6572 124.902L74.6138 124.812ZM97.9533 120.708C88.0742 120.708 80.2931 122.075 74.6138 124.812L74.6572 124.902C80.3175 122.174 88.0815 120.808 97.9533 120.808V120.708ZM121.293 124.812C115.738 122.075 107.957 120.708 97.9533 120.708V120.808C107.95 120.808 115.714 122.174 121.249 124.902L121.293 124.812ZM129.265 135.481C129.516 131.105 126.847 127.55 121.293 124.812L121.249 124.902C126.785 127.63 129.413 131.156 129.165 135.475L129.265 135.481ZM129.265 137.901V135.478H129.165V137.901H129.265ZM97.9906 111.018C93.96 111.018 90.5335 109.618 87.7081 106.818L87.6377 106.889C90.4821 109.708 93.934 111.118 97.9906 111.118V111.018ZM108.342 106.794C105.551 109.61 102.101 111.018 97.9906 111.018V111.118C102.127 111.118 105.602 109.7 108.413 106.864L108.342 106.794ZM112.529 96.5435C112.529 100.562 111.134 103.977 108.342 106.794L108.413 106.864C111.224 104.029 112.629 100.588 112.629 96.5435H112.529ZM108.307 86.2244C111.122 89.0072 112.529 92.4458 112.529 96.5435H112.629C112.629 92.4201 111.212 88.9556 108.377 86.1533L108.307 86.2244ZM97.9159 82.05C102.028 82.05 105.49 83.4415 108.307 86.2244L108.377 86.1532C105.541 83.3511 102.053 81.95 97.9159 81.95V82.05ZM87.6839 86.2596C90.4931 83.4529 93.9028 82.05 97.9159 82.05V81.95C93.8766 81.95 90.4414 83.3632 87.6133 86.1888L87.6839 86.2596ZM83.4706 96.618C83.4706 92.519 84.875 89.0673 87.6839 86.2596L87.6132 86.1889C84.7848 89.016 83.3705 92.4934 83.3705 96.618H83.4706ZM87.7081 106.818C84.8827 104.017 83.4706 100.618 83.4706 96.618H83.3705C83.3705 100.645 84.7933 104.07 87.6377 106.889L87.7081 106.818ZM98.0654 107.019C100.901 107.019 103.352 106.029 105.418 104.052L105.349 103.979C103.302 105.94 100.875 106.919 98.0654 106.919V107.019ZM90.4598 104.023C92.4453 106.021 94.9819 107.019 98.0654 107.019V106.919C95.0057 106.919 92.4955 105.93 90.5308 103.952L90.4598 104.023ZM87.4827 96.5621C87.4827 99.5372 88.4749 102.025 90.4598 104.023L90.5308 103.952C88.5656 101.975 87.5827 99.5125 87.5827 96.5621H87.4827ZM90.4876 89.1315C88.4846 91.1845 87.4827 93.6623 87.4827 96.5621H87.5827C87.5827 93.688 88.5746 91.2354 90.5592 89.2014L90.4876 89.1315ZM97.972 86.0494C94.9871 86.0494 92.4912 87.0768 90.4876 89.1316L90.5592 89.2014C92.5431 87.1667 95.0128 86.1494 97.972 86.1494V86.0494ZM105.426 89.1386C103.367 87.0795 100.881 86.0494 97.972 86.0494V86.1494C100.855 86.1494 103.315 87.1689 105.355 89.2093L105.426 89.1386ZM108.517 96.4689C108.517 93.6416 107.486 91.1973 105.426 89.1385L105.355 89.2093C107.397 91.2499 108.417 93.669 108.417 96.4689H108.517ZM105.418 104.052C107.484 102.072 108.517 99.5435 108.517 96.4689H108.417C108.417 99.5186 107.394 102.021 105.349 103.979L105.418 104.052ZM36.4038 101.856C34.6939 103.573 33.8379 105.611 33.8379 107.966H33.9379C33.9379 105.638 34.7828 103.626 36.4747 101.927L36.4038 101.856ZM42.6075 99.2792C40.1817 99.2792 38.1129 100.139 36.4038 101.856L36.4747 101.927C38.165 100.228 40.2083 99.3792 42.6075 99.3792V99.2792ZM48.8289 101.827C47.0443 100.129 44.9698 99.2792 42.6075 99.2792V99.3792C44.943 99.3792 46.9931 100.219 48.7599 101.9L48.8289 101.827ZM51.5079 108.104C51.5079 105.619 50.6146 103.526 48.8289 101.827L48.7599 101.9C50.5256 103.58 51.4079 105.647 51.4079 108.104H51.5079ZM48.9608 114.131C50.658 112.415 51.5079 110.405 51.5079 108.104H51.4079C51.4079 110.377 50.5694 112.362 48.8897 114.061L48.9608 114.131ZM42.4766 116.708C45.0981 116.708 47.2608 115.85 48.9608 114.131L48.8897 114.061C47.2102 115.759 45.0739 116.608 42.4766 116.608V116.708ZM36.3287 114.15C37.9894 115.855 40.0398 116.708 42.4766 116.708V116.608C40.0661 116.608 38.0417 115.766 36.4003 114.08L36.3287 114.15ZM33.8379 107.966C33.8379 110.384 34.6683 112.446 36.3287 114.15L36.4003 114.08C34.7585 112.395 33.9379 110.358 33.9379 107.966H33.8379ZM46.045 111.249C45.1855 112.117 44.1063 112.608 42.4766 112.608V112.708C44.1306 112.708 45.2362 112.208 46.1161 111.319L46.045 111.249ZM46.046 111.248L46.045 111.249L46.1161 111.319L46.1171 111.318L46.046 111.248ZM47.4079 108.104C47.4079 109.266 47.026 110.256 46.046 111.248L46.1171 111.318C47.1147 110.309 47.5079 109.294 47.5079 108.104H47.4079ZM46.0028 104.798C46.9676 105.716 47.4079 106.732 47.4079 108.104H47.5079C47.5079 106.705 47.0565 105.662 46.0717 104.725L46.0028 104.798ZM42.6075 103.379C43.8683 103.379 44.9438 103.79 46.0028 104.798L46.0717 104.725C44.995 103.701 43.8951 103.279 42.6075 103.279V103.379ZM39.3101 104.748C40.2487 103.805 41.2712 103.379 42.6075 103.379V103.279C41.2446 103.279 40.1966 103.715 39.2392 104.678L39.3101 104.748ZM39.309 104.749L39.3101 104.748L39.2392 104.678L39.2381 104.679L39.309 104.749ZM37.9379 107.966C37.9379 106.73 38.3391 105.723 39.309 104.749L39.2382 104.679C38.2502 105.671 37.8379 106.703 37.8379 107.966H37.9379ZM39.2651 111.288C38.3645 110.364 37.9379 109.334 37.9379 107.966H37.8379C37.8379 109.36 38.2743 110.415 39.1935 111.358L39.2651 111.288ZM39.2661 111.29L39.2651 111.288L39.1935 111.358L39.1945 111.359L39.2661 111.29ZM42.4766 112.608C41.1162 112.608 40.1345 112.181 39.2661 111.29L39.1945 111.359C40.0821 112.271 41.0899 112.708 42.4766 112.708V112.608ZM159.815 114.19C161.504 112.51 162.349 110.462 162.349 108.048H162.249C162.249 110.436 161.414 112.459 159.744 114.119L159.815 114.19ZM153.366 116.708C155.975 116.708 158.126 115.869 159.815 114.19L159.744 114.119C158.076 115.778 155.951 116.608 153.366 116.608V116.708ZM147.264 114.092C148.986 115.836 151.021 116.708 153.366 116.708V116.608C151.049 116.608 149.039 115.747 147.335 114.022L147.264 114.092ZM144.679 108.022C144.679 110.325 145.542 112.349 147.264 114.092L147.335 114.022C145.63 112.297 144.779 110.297 144.779 108.022H144.679ZM147.303 101.856C145.554 103.573 144.679 105.629 144.679 108.022H144.779C144.779 105.657 145.643 103.626 147.373 101.927L147.303 101.856ZM153.484 99.2792C151.113 99.2792 149.052 100.139 147.303 101.856L147.373 101.927C149.104 100.228 151.14 99.3792 153.484 99.3792V99.2792ZM159.764 101.828C158.041 100.129 155.947 99.2792 153.484 99.2792V99.3792C155.921 99.3792 157.99 100.219 159.694 101.899L159.764 101.828ZM162.349 108.048C162.349 105.601 161.487 103.527 159.764 101.828L159.694 101.899C161.398 103.579 162.249 105.628 162.249 108.048H162.349ZM156.994 111.354L156.995 111.352L156.924 111.282L156.923 111.283L156.994 111.354ZM153.366 112.708C155.031 112.708 156.131 112.212 156.994 111.354L156.923 111.283C156.081 112.121 155.007 112.608 153.366 112.608V112.708ZM150.109 111.281C151.118 112.302 152.143 112.708 153.366 112.708V112.608C152.171 112.608 151.171 112.214 150.18 111.211L150.109 111.281ZM148.679 108.022C148.679 109.2 149.074 110.233 150.109 111.281L150.18 111.211C149.162 110.18 148.779 109.172 148.779 108.022H148.679ZM150.106 104.71C149.102 105.696 148.679 106.732 148.679 108.022H148.779C148.779 106.76 149.19 105.749 150.176 104.781L150.106 104.71ZM153.484 103.279C152.2 103.279 151.135 103.699 150.106 104.71L150.176 104.781C151.187 103.788 152.227 103.379 153.484 103.379V103.279ZM156.956 104.676C155.996 103.73 154.917 103.279 153.484 103.279V103.379C154.891 103.379 155.945 103.82 156.885 104.747L156.956 104.676ZM158.349 108.048C158.349 106.658 157.907 105.614 156.956 104.676L156.885 104.747C157.817 105.666 158.249 106.684 158.249 108.048H158.349ZM156.995 111.353C157.917 110.436 158.349 109.414 158.349 108.048H158.249C158.249 109.388 157.827 110.384 156.924 111.282L156.995 111.353ZM21.95 137.811V138H22.05V137.811H21.95ZM26.9163 130.608C25.0364 131.784 23.7945 132.973 23.0226 134.174C22.2503 135.377 21.95 136.59 21.95 137.811H22.05C22.05 136.608 22.3455 135.414 23.1067 134.228C23.8684 133.042 25.0979 131.863 26.9694 130.693L26.9163 130.608ZM42.6505 126.944C35.791 126.944 30.646 128.277 26.9163 130.608L26.9694 130.693C30.6783 128.374 35.8031 127.044 42.6505 127.044V126.944ZM44.7909 127.039C43.9586 126.974 43.2476 126.944 42.6505 126.944V127.044C43.2444 127.044 43.9527 127.074 44.7831 127.138L44.7909 127.039ZM44.5782 128.136C44.6599 127.793 44.7457 127.448 44.8354 127.101L44.7386 127.076C44.6487 127.423 44.5628 127.769 44.4809 128.113L44.5782 128.136ZM43.8631 134.062C43.8631 132.094 44.1063 130.116 44.5782 128.136L44.4809 128.113C44.0073 130.1 43.7631 132.085 43.7631 134.062H43.8631ZM43.8631 138V134.062H43.7631V138H43.8631ZM22 138.05H43.8131V137.95H22V138.05ZM45.9453 123.124C44.6851 123.004 43.5868 122.944 42.6505 122.944V123.044C43.5827 123.044 44.6777 123.104 45.9358 123.224L45.9453 123.124ZM46.0122 123.13L45.9453 123.124L45.9358 123.224L46.0027 123.23L46.0122 123.13ZM49.9721 123.711C48.6199 123.448 47.2999 123.255 46.0123 123.13L46.0027 123.23C47.287 123.354 48.6038 123.547 49.9531 123.809L49.9721 123.711ZM48.8349 127.621C49.1701 126.373 49.5618 125.091 50.0099 123.776L49.9153 123.744C49.4664 125.061 49.0741 126.345 48.7383 127.595L48.8349 127.621ZM48.4692 129.063C48.5825 128.588 48.7044 128.107 48.8349 127.621L48.7383 127.595C48.6076 128.082 48.4855 128.563 48.3719 129.04L48.4692 129.063ZM47.8631 134.062C47.8631 132.425 48.0651 130.759 48.4692 129.063L48.3719 129.04C47.9661 130.743 47.7631 132.417 47.7631 134.062H47.8631ZM47.8631 142V134.062H47.7631V142H47.8631ZM18 142.05H47.8131V141.95H18V142.05ZM17.95 137.811V142H18.05V137.811H17.95ZM24.7959 127.217C20.2377 130.066 17.95 133.598 17.95 137.811H18.05C18.05 133.642 20.3106 130.139 24.8489 127.301L24.7959 127.217ZM42.6505 122.944C35.3074 122.944 29.3546 124.367 24.7959 127.217L24.8489 127.301C29.3869 124.464 35.3194 123.044 42.6505 123.044V122.944ZM151.95 134.111V138H152.05V134.111H151.95ZM151.37 127.946C151.754 130.023 151.95 132.079 151.95 134.111H152.05C152.05 132.073 151.853 130.011 151.469 127.928L151.37 127.946ZM151.202 127.106C151.262 127.383 151.318 127.664 151.37 127.946L151.469 127.928C151.416 127.644 151.36 127.363 151.3 127.085L151.202 127.106ZM153.421 126.944C152.793 126.944 152.071 126.976 151.247 127.046L151.255 127.145C152.077 127.076 152.797 127.044 153.421 127.044V126.944ZM169.151 130.532C165.453 128.253 160.311 126.944 153.421 126.944V127.044C160.299 127.044 165.421 128.351 169.099 130.617L169.151 130.532ZM174.05 137.813C174.05 136.51 173.742 135.254 172.974 134.041C172.207 132.828 170.981 131.66 169.151 130.532L169.099 130.617C170.92 131.74 172.132 132.898 172.89 134.094C173.646 135.29 173.95 136.527 173.95 137.813H174.05ZM174.05 138V137.813H173.95V138H174.05ZM152 138.05H174V137.95H152V138.05ZM150.068 123.24L150.186 123.228L150.176 123.129L150.058 123.141L150.068 123.24ZM145.952 123.818C147.519 123.556 148.891 123.364 150.068 123.24L150.058 123.141C148.878 123.265 147.504 123.458 145.936 123.72L145.952 123.818ZM147.315 127.595C146.985 126.168 146.543 124.885 145.989 123.747L145.899 123.791C146.449 124.921 146.889 126.197 147.218 127.617L147.315 127.595ZM147.535 128.655C147.468 128.293 147.395 127.94 147.315 127.595L147.218 127.617C147.297 127.961 147.37 128.313 147.437 128.673L147.535 128.655ZM148.05 134.111C148.05 132.331 147.878 130.512 147.535 128.655L147.437 128.673C147.779 130.525 147.95 132.337 147.95 134.111H148.05ZM148.05 142V134.111H147.95V142H148.05ZM178 141.95H148V142.05H178V141.95ZM177.95 137.813V142H178.05V137.813H177.95ZM171.198 127.212C175.704 129.991 177.95 133.524 177.95 137.813H178.05C178.05 133.481 175.779 129.919 171.251 127.127L171.198 127.212ZM153.421 123.044C160.767 123.044 166.691 124.435 171.198 127.212L171.251 127.127C166.723 124.337 160.778 122.944 153.421 122.944V123.044ZM150.186 123.228C151.39 123.105 152.468 123.044 153.421 123.044V122.944C152.464 122.944 151.382 123.005 150.176 123.129L150.186 123.228Z" fill="white" mask="url(#path-1-inside-1_281_7)"/>
</svg>
