<svg width="248" height="63" viewBox="0 0 248 63" fill="none" xmlns="http://www.w3.org/2000/svg">
<path fill-rule="evenodd" clip-rule="evenodd" d="M97.5083 37.5792L92.9262 43.092C94.7079 45.6363 100.479 49.5376 109.218 49.5376C116.685 49.5376 122.795 44.8214 122.795 37.8337C122.795 31.7263 116.777 29.426 113.547 28.1914C113.368 28.123 113.197 28.0579 113.037 27.9956C112.479 27.7787 111.883 27.5713 111.281 27.3618C108.532 26.4048 105.655 25.4031 105.655 23.2462C105.655 21.1693 107.776 19.5144 110.576 19.5144C114.988 19.5144 117.874 21.2107 120.844 23.9246L125.426 18.7512C122.456 15.7828 118.213 13.0688 111.34 13.0688C103.448 13.0688 97.7629 18.2423 97.7629 23.9246C97.7629 29.6069 103.194 32.4341 106.418 33.6779C107.13 33.9527 107.813 34.2054 108.46 34.4447L108.46 34.4447C112.204 35.8303 114.734 36.7666 114.734 38.9362C114.734 41.4805 113.037 43.092 109.218 43.092C104.552 43.092 100.956 40.8319 97.5083 37.5792ZM128.65 20.2778H139.003L132.638 48.8591H140.361L146.555 20.2778H156.822L158.265 13.6624H130.178L128.65 20.2778ZM148.337 48.9439H156.992L160.471 42.8375H176.169L177.103 48.9439H184.994L179.224 13.6624H169.721L148.337 48.9439ZM195.941 13.6624L188.304 48.9439H195.686L198.487 36.307H204.341L208.414 48.9439H216.815L211.894 35.883C218.4 34.0327 221.737 29.4374 221.991 23.8398C222.223 18.7511 217.748 13.6624 211.894 13.6624H195.941ZM199.992 29.8614L202.113 20.0233H209.836C212.127 20.0233 214.158 22.3133 213.993 24.6031C213.712 28.5044 210.813 29.8614 208.223 29.8614H199.992ZM164.014 36.3919H175.638L173.262 20.2778L164.014 36.3919Z" fill="white"/>
<path fill-rule="evenodd" clip-rule="evenodd" d="M34.0717 62.7342C51.4044 62.7342 65.4553 48.6907 65.4553 31.3671C65.4553 14.0435 51.4044 0 34.0717 0C30.0383 0 26.1825 0.760508 22.6402 2.14588C21.3409 2.69124 21.5652 3.01576 23.0057 2.66935C25.4157 1.98107 27.9529 1.61354 30.5726 1.61354C46.3429 1.61354 59.1272 14.933 59.1272 31.3633C59.1272 47.7936 46.3429 61.113 30.5726 61.113C27.9897 61.113 25.4869 60.7557 23.1072 60.0859C21.5462 59.691 21.3029 60.041 22.7267 60.622C22.8876 60.6843 23.049 60.7454 23.211 60.8051L23.2341 60.8133C23.266 60.8244 23.2951 60.8352 23.3216 60.8457C26.675 62.0676 30.2954 62.7342 34.0717 62.7342ZM32.2441 9.57913C29.4713 14.3988 26.8288 18.9919 26.8288 27.8968V37.8175C26.8288 38.6243 26.4357 39.8848 26.4357 39.8848C25.5637 42.4211 25.1897 44.9686 24.8799 49.8605C24.6745 53.1032 24.6895 54.4218 24.7562 55.3414C24.8411 56.2318 25.3193 56.1266 25.5691 55.8492L26.7384 54.5804C27.2048 54.0759 27.3379 53.8017 27.5406 52.9445C27.6069 52.6534 27.6665 52.381 27.7233 52.1218C28.0112 50.8079 28.2251 49.8318 28.8448 48.4499C29.55 46.8776 30.2273 52.4991 30.2839 53.0258C30.3405 53.5526 30.7585 53.563 30.9343 53.4117C31.1101 53.2605 31.7878 52.6398 31.7878 52.6398C32.04 52.3878 32.1264 52.1265 32.0317 51.6243C31.9164 51.0207 31.7837 50.3547 31.6403 49.6354C30.0784 41.797 27.2548 27.6275 31.9852 18.8963C32.4122 18.1573 32.8008 18.2248 33.0286 18.8583C35.1034 24.89 34.6387 49.5861 34.6127 50.5275C34.5866 51.4687 35.0401 51.0927 35.141 50.8118C35.1585 50.7631 35.1903 50.6781 35.2311 50.5686C35.4264 50.0452 35.8293 48.9653 35.8699 48.6585C37.3106 37.7584 37.6197 32.644 36.1166 21.156C36.0094 20.3493 36.3916 20.2162 36.6856 20.8717C40.6098 29.9062 38.8697 39.0714 37.5601 45.9693C37.4997 46.2875 37.4402 46.601 37.3821 46.9095C37.2401 47.6653 37.5586 47.6402 37.8864 47.0103C38.214 46.3803 38.8947 45.0953 38.8947 45.0953C39.2981 44.2387 39.6762 44.289 39.8527 45.0953L41.2989 50.7305C41.4791 51.386 41.8447 51.3454 41.9695 50.6899C42.5691 47.5416 42.8695 43.6258 41.3688 38.9772C41.1735 38.3721 41.0089 37.3132 41.0157 36.5065C41.0183 36.1969 41.0245 35.7945 41.0318 35.323C41.0695 32.8766 41.1361 28.5675 40.8741 25.6802C40.5616 22.2366 38.8581 14.4633 34.5571 7.88094C34.0085 7.23931 33.6835 7.20928 33.213 7.88095C32.891 8.45485 32.5666 9.01856 32.2441 9.57913Z" fill="white"/>
<path fill-rule="evenodd" clip-rule="evenodd" d="M65.3616 28.9257C66.4918 29.7126 67.1963 30.6401 67.3966 31.6984C68.4563 37.2981 54.9957 44.4369 37.3315 47.6431C19.6673 50.8495 4.48858 48.9091 3.42886 43.3094C2.83139 40.1523 6.84937 36.506 13.634 33.3511C14.4796 34.3091 14.9934 35.5668 14.9953 36.9445C14.9996 33.941 17.4364 31.5074 20.4423 31.5065C17.4411 31.5058 15.007 29.0796 14.9954 26.0824C14.9838 29.0801 12.5487 31.5065 9.54671 31.5065C10.721 31.5065 11.8085 31.8779 12.6981 32.5093C4.38618 36.1257 -0.633345 40.4197 0.0644331 44.1068C1.2335 50.2844 18.0085 52.4194 37.5325 48.8755C57.0565 45.3317 71.9361 37.4509 70.767 31.2733C70.3858 29.2591 68.3455 27.6745 65.0916 26.5766C65.2102 27.3506 65.3006 28.1341 65.3616 28.9257Z" fill="#FDAE2D"/>
</svg>
